HIERARCHY
ROOT Hips
{
	OFFSET -3.958830 18.904000 13.208200
	CHANNELS 6 Xposition Yposition Zposition Zrotation Yrotation Xrotation 
	JOINT LHipJoint
	{
		OFFSET 0.000000 0.000000 0.000000
		CHANNELS 3 Zrotation Yrotation Xrotation
		JOINT LeftUpLeg
		{
			OFFSET 1.800000 -1.400000 0.085000
			CHANNELS 3 Zrotation Yrotation Xrotation
			JOINT LeftLeg
			{
				OFFSET 2.215000 -6.000000 0.000000
				CHANNELS 3 Zrotation Yrotation Xrotation
				JOINT LeftFoot
				{
					OFFSET 2.500000 -6.900000 0.000000
					CHANNELS 3 Zrotation Yrotation Xrotation
					JOINT LeftToeBase
					{
						OFFSET 0.200000 -0.500000 1.950000
						CHANNELS 3 Zrotation Yrotation Xrotation
						End Site
						{
							OFFSET 0.000000 0.000000 0.000000
						}
					}
				}
			}
		}
	}
	JOINT RHipJoint
	{
		OFFSET 0.000000 0.000000 0.000000
		CHANNELS 3 Zrotation Yrotation Xrotation
		JOINT RightUpLeg
		{
			OFFSET -1.800000 -1.400000 0.085000
			CHANNELS 3 Zrotation Yrotation Xrotation
			JOINT RightLeg
			{
				OFFSET -2.215000 -6.000000 0.000000
				CHANNELS 3 Zrotation Yrotation Xrotation
				JOINT RightFoot
				{
					OFFSET -2.500000 -6.900000 0.000000
					CHANNELS 3 Zrotation Yrotation Xrotation
					JOINT RightToeBase
					{
						OFFSET -0.200000 -0.500000 1.950000
						CHANNELS 3 Zrotation Yrotation Xrotation
						End Site
						{
							OFFSET 0.000000 0.000000 0.000000
						}
					}
				}
			}
		}
	}
	JOINT LowerBack
	{
		OFFSET 0.000000 0.000000 0.000000
		CHANNELS 3 Zrotation Yrotation Xrotation
		JOINT Spine
		{
			OFFSET -0.087000 1.940000 -0.288900
			CHANNELS 3 Zrotation Yrotation Xrotation
			JOINT Spine1
			{
				OFFSET 0.000000 1.950000 0.060000
				CHANNELS 3 Zrotation Yrotation Xrotation
				JOINT Neck
				{
					OFFSET 0.000000 0.000000 0.000000
					CHANNELS 3 Zrotation Yrotation Xrotation
					JOINT Neck1
					{
						OFFSET 0.000000 1.600000 0.340000
						CHANNELS 3 Zrotation Yrotation Xrotation
						JOINT Head
						{
							OFFSET 0.000000 1.667000 -0.240000
							CHANNELS 3 Zrotation Yrotation Xrotation
							End Site
							{
								OFFSET 0.000000 0.000000 0.000000
							}
						}
					}
				}
				JOINT LeftShoulder
				{
					OFFSET 0.000000 0.000000 0.000000
					CHANNELS 3 Zrotation Yrotation Xrotation
					JOINT LeftArm
					{
						OFFSET 2.700000 1.550000 -0.730000
						CHANNELS 3 Zrotation Yrotation Xrotation
						JOINT LeftForeArm
						{
							OFFSET 5.450000 0.000000 0.000000
							CHANNELS 3 Zrotation Yrotation Xrotation
							JOINT LeftHand
							{
								OFFSET 3.450000 0.000000 0.000000
								CHANNELS 3 Zrotation Yrotation Xrotation
								JOINT LeftHandIndex1
								{
									OFFSET 0.750000 0.000000 0.000000
									CHANNELS 3 Zrotation Yrotation Xrotation
									End Site
									{
										OFFSET 0.000000 0.000000 0.000000
									}
								}
							}
						}
					}
				}
				JOINT RightShoulder
				{
					OFFSET 0.000000 0.000000 0.000000
					CHANNELS 3 Zrotation Yrotation Xrotation
					JOINT RightArm
					{
						OFFSET -2.700000 1.550000 -0.730000
						CHANNELS 3 Zrotation Yrotation Xrotation
						JOINT RightForeArm
						{
							OFFSET -5.450000 0.000000 0.000000
							CHANNELS 3 Zrotation Yrotation Xrotation
							JOINT RightHand
							{
								OFFSET -3.450000 0.000000 0.000000
								CHANNELS 3 Zrotation Yrotation Xrotation
								JOINT RightHandIndex1
								{
									OFFSET -0.750000 0.000000 0.000000
									CHANNELS 3 Zrotation Yrotation Xrotation
									End Site
									{
										OFFSET 0.000000 0.000000 0.000000
									}
								}
							}
						}
					}
				}
			}
		}
	}
}
MOTION
Frames: 9
Frame Time: 0.016667
0.766170 16.485720 -5.180380 -5.887666 -0.856014 5.267409 -15.328737 11.046306 3.430589 12.166454 -9.572003 -27.334598 -14.803380 15.370681 45.256721 -0.234550 10.212783 1.119737 0.350390 -0.192410 0.089090 18.825783 -6.832984 5.885074 -4.003486 11.839024 -72.109667 -3.753728 -13.876759 72.845419 -1.999295 -11.277531 1.123816 -0.036430 0.459900 0.055520 -4.162428 -3.810993 -9.215897 20.168815 -16.469955 25.917631 -3.965700 -10.162029 13.893688 2.402166 -8.617293 -14.102559 -23.588309 12.149763 43.559263 -6.582390 5.635850 -26.604260 -10.961079 -5.061174 6.310182 -5.333761 18.114356 -1.051031 -160.472435 -48.807469 121.901254 -3.787753 2.936326 1.344250 0.088790 -0.112460 0.268900 7.334364 7.097823 9.429312 24.517881 -21.115732 -12.645794 97.653668 61.744441 50.027798 1.470314 -1.173244 -0.665510 0.788030 0.342710 -0.540210 
0.764320 16.481110 -5.205180 -6.506751 -1.821957 4.510146 -15.351978 11.045452 3.419386 13.246921 -9.266977 -27.074587 -15.158022 15.881984 45.570411 -0.158169 10.366869 1.071126 0.364290 -0.171060 0.089240 18.808358 -6.739905 5.966119 -2.993963 13.121664 -72.250914 -5.291655 -13.149386 75.559653 -2.120744 -11.592551 1.054234 -0.046770 0.441400 0.055350 -4.111410 -3.894542 -9.280675 20.028232 -16.623200 28.476568 -3.688164 -9.954242 13.234879 2.491721 -9.255465 -14.286312 -25.175151 12.791237 42.530487 -6.176710 5.476070 -28.042370 -11.392922 -5.202604 6.336682 -6.427766 17.952400 -1.687157 -160.469316 -49.130776 121.659195 -3.745862 2.942428 1.347220 0.055790 -0.090520 0.280510 7.688026 7.808952 9.563911 24.703254 -20.998513 -13.033288 99.741388 62.429992 52.256723 1.540402 -1.110142 -0.639410 0.781040 0.322920 -0.520470 
0.769690 16.460290 -5.242320 -7.625019 -3.644983 3.014289 -15.378544 10.945397 3.447621 15.261460 -8.947525 -26.526557 -16.318655 17.342133 46.948675 0.050537 10.879000 0.917278 0.387420 -0.116750 0.084500 18.802382 -6.596065 6.051601 -1.192522 15.232338 -72.022005 -7.367513 -12.316264 80.219081 -2.337344 -12.210818 0.908123 -0.038980 0.406860 0.027160 -4.092517 -3.882897 -9.368127 20.332556 -17.398630 32.929267 -4.100133 -9.808471 11.925929 2.684751 -10.510561 -14.448268 -27.861384 13.754024 39.316743 -5.779320 5.130560 -29.551860 -11.840408 -5.238858 6.344736 -8.651426 17.725087 -2.964482 -159.651788 -50.036753 119.968288 -3.667378 2.961915 1.318760 0.001970 -0.069210 0.304020 7.894404 8.819320 9.629093 25.669089 -19.930990 -13.708415 103.686898 63.269176 56.419740 1.660351 -1.028166 -0.603380 0.772940 0.275540 -0.480160 
0.787280 16.443540 -5.256180 -8.245327 -6.191411 1.356434 -15.384659 10.936758 3.430721 16.498725 -8.351004 -24.920207 -17.630755 18.757766 47.652613 0.256653 11.293326 0.807785 0.380090 -0.104810 0.045150 18.789531 -6.576607 6.069336 0.677198 17.051647 -69.823657 -8.977271 -11.395870 83.623291 -2.490911 -12.643407 0.838871 -0.056890 0.400930 -0.001730 -4.107491 -3.796019 -9.400672 20.413110 -17.819649 37.018160 -5.069609 -9.495521 10.000387 3.008913 -11.450729 -14.876241 -30.353345 14.893950 36.922919 -4.868480 4.586470 -29.243580 -12.295492 -5.881196 6.548650 -11.906751 17.230673 -4.673531 -154.968782 -52.298307 112.822272 -3.601066 2.966772 1.281670 -0.027760 -0.076540 0.323620 7.816358 10.278789 9.929891 27.774932 -18.078103 -14.365622 104.857401 63.403055 57.610194 1.739325 -0.993698 -0.573130 0.763340 0.254360 -0.438160 
0.807710 16.439660 -5.259510 -8.441443 -7.897357 -0.031756 -15.362132 10.953977 3.402091 17.003381 -7.953903 -23.250391 -18.633480 19.627743 47.863191 0.348517 11.555238 0.726356 0.409960 -0.078710 0.053260 18.790626 -6.687935 5.978873 1.675465 17.711103 -66.857218 -8.631228 -11.846306 85.064613 -2.589322 -12.920764 0.761039 -0.037170 0.385930 0.005730 -4.174615 -3.597887 -9.345474 20.791112 -18.448743 39.596819 -6.432865 -9.650998 8.430307 3.185030 -12.158945 -14.784289 -31.723062 15.749792 33.972258 -5.080280 4.181630 -28.950560 -12.631563 -6.197551 6.465018 -15.616700 16.074180 -6.329547 -147.797078 -54.548402 102.647239 -3.565360 2.991693 1.262310 -0.040460 -0.081780 0.329700 7.830278 10.975098 9.733029 30.438051 -15.026824 -14.659833 104.140091 62.974819 56.564669 1.759592 -1.051341 -0.552410 0.741050 0.242150 -0.426920 
0.815900 16.449590 -5.220790 -8.128704 -8.461417 -1.230485 -15.293241 11.156000 3.329387 16.312748 -7.586215 -21.296278 -18.462479 19.419174 47.508761 0.304795 11.533614 0.731712 0.388750 -0.116970 0.049610 18.789839 -7.105252 5.651872 2.751195 16.739852 -61.473390 -8.571126 -11.550100 83.609777 -2.523902 -12.669940 0.810900 -0.035510 0.417150 0.015900 -4.268205 -3.332977 -9.137161 21.437015 -19.001303 39.992412 -8.069184 -10.221371 7.328564 3.251764 -12.441629 -14.395141 -32.010233 16.652410 32.092843 -5.678000 4.125150 -28.291460 -13.197613 -6.423162 6.259339 -19.724026 14.790675 -7.985061 -137.182135 -56.726212 89.056900 -3.622424 2.944004 1.253820 -0.014280 -0.109670 0.302220 8.183445 11.028319 9.267252 33.914009 -11.864942 -14.925459 101.214280 62.348187 53.348470 1.739148 -1.086716 -0.569830 0.765090 0.291970 -0.436040 
0.787110 16.460200 -5.162050 -7.004858 -9.269259 -1.721942 -15.248920 11.476312 3.325252 15.226976 -6.988148 -19.663436 -18.670551 19.106953 46.124261 0.227446 11.407738 0.797907 0.308320 -0.222610 -0.016230 18.746008 -7.536069 5.258156 3.854003 15.447851 -55.141271 -8.795346 -10.063393 79.438640 -2.315571 -11.894704 1.020637 -0.071490 0.513920 0.034420 -4.251835 -3.293802 -8.941632 20.632960 -17.912185 38.682490 -8.744816 -10.001485 6.232152 3.268234 -12.241377 -14.236866 -31.628858 17.410833 32.077419 -5.863380 4.476850 -26.438580 -13.849435 -6.756802 6.057244 -23.716342 13.185127 -9.070568 -122.190080 -57.678575 71.524936 -3.719177 2.867972 1.272030 0.045380 -0.149470 0.294480 8.662481 11.270553 9.162257 37.849698 -9.933324 -15.277591 96.022920 61.007336 47.838408 1.663369 -1.129016 -0.626170 0.818330 0.373380 -0.436220 
0.736120 16.480370 -5.077970 -5.504923 -9.636199 -1.416089 -15.217622 11.835406 3.387528 14.007391 -6.437923 -18.667332 -19.110526 18.628309 44.060016 0.194443 11.086507 0.922777 0.309590 -0.229940 -0.021150 18.684327 -7.975069 4.789598 4.358058 13.634404 -49.067145 -8.675338 -8.569469 73.517860 -2.035610 -10.827558 1.322566 -0.078780 0.550180 0.053270 -4.177087 -3.385784 -8.732434 19.332861 -16.150225 35.146256 -8.695432 -9.554862 5.767429 3.108233 -11.854015 -13.975962 -31.085665 17.955489 33.185104 -5.739190 5.169180 -23.089020 -14.032540 -6.599738 5.756411 -29.163925 10.676146 -9.863174 -102.694387 -57.355760 52.535479 -3.738967 2.878866 1.236050 0.090880 -0.172090 0.310460 8.979864 11.088217 8.856198 41.860376 -7.910953 -15.366429 87.581902 59.347948 40.489703 1.585381 -1.250444 -0.612860 0.802190 0.367940 -0.427710 
0.663220 16.496290 -4.976060 -3.670759 -10.276628 0.169351 -15.226833 12.121051 3.475087 12.470370 -5.952659 -18.854738 -19.637196 18.218745 41.840511 0.103309 10.786673 1.027748 0.217980 -0.345610 -0.078580 18.616821 -8.228785 4.437379 3.863449 12.264296 -45.219431 -8.453369 -7.246457 67.841964 -1.679358 -9.806240 1.611673 -0.104740 0.634380 0.027220 -4.048317 -3.640441 -8.570145 17.298151 -13.658540 29.493279 -7.854476 -8.614749 5.641662 2.629426 -11.688990 -13.661820 -30.798583 18.111948 33.187108 -4.678100 5.500040 -18.211100 -13.577388 -5.646575 5.302698 -35.986435 8.281165 -10.513462 -81.739328 -54.333439 34.951297 -3.785649 2.826338 1.178670 0.169200 -0.274370 0.270870 9.318155 10.496561 8.588945 45.444923 -6.752150 -15.303172 79.902946 56.738933 33.957622 1.500012 -1.303131 -0.667940 0.808140 0.437440 -0.441350 
